<?xml version="1.0" encoding="UTF-8"?>
<svg id="Calque_2" xmlns="http://www.w3.org/2000/svg" viewBox="0 0 357.96 237.49">
  <defs>
    <style>
      .cls-1 {
        fill: #ffde00;
      }

      .cls-2 {
        fill: #ff287e;
      }

      .cls-3 {
        fill: #ffffff;
      }
    </style>
  </defs>
  <g id="Calque_1-2" data-name="Calque_1">
    <g>
      <g>
        <circle class="cls-2" cx="249.4" cy="128.93" r="108.56"/>
        <g>
          <g>
            <path class="cls-2" d="M18.57,36.85v11.6c1.51.07,3.12-.02,4.81-.28,1.7-.25,3.41-.54,5.13-.87,1.72-.33,3.43-.63,5.13-.92,1.7-.28,3.31-.42,4.86-.41.25.8.45,1.8.59,3s.22,2.45.23,3.75c.01,1.3-.05,2.57-.19,3.79-.14,1.23-.35,2.28-.63,3.17-.65.41-1.34.72-2.08.94-.74.22-1.52.39-2.33.54-.81.14-1.65.26-2.5.35-.86.09-1.72.21-2.59.35l-10.22,1.61c-.2,1.57-.29,3.23-.27,4.98.01,1.75.04,3.51.08,5.28.04,1.77.04,3.52,0,5.23-.04,1.72-.22,3.31-.53,4.79-.98.46-2.17.87-3.55,1.21-1.39.35-2.82.63-4.29.87s-2.92.41-4.35.52c-1.43.11-2.69.17-3.78.18-.31-1.27-.52-2.59-.63-3.96-.11-1.37-.18-2.76-.19-4.17-.01-1.41,0-2.84.04-4.3.04-1.45.06-2.9.06-4.36,0-3.42,0-6.76.02-10.03.01-3.27.03-6.5.04-9.7.01-3.2.02-6.37.02-9.53s-.03-6.32-.08-9.51c0-.56-.02-1.13-.06-1.71-.04-.58-.04-1.16.02-1.73.06-.57.17-1.13.34-1.67.17-.54.46-1.06.88-1.55,3.25-.63,6.67-1.24,10.26-1.85,3.59-.61,7.18-1.2,10.79-1.77,3.6-.57,7.11-1.1,10.53-1.58,3.42-.48,6.57-.91,9.46-1.28.25.02.46.08.63.19s.33.24.48.39c.15.14.3.28.44.41.14.13.32.22.55.27-.14.98-.13,2.07.02,3.28.15,1.21.29,2.41.4,3.62s.11,2.34,0,3.41c-.11,1.07-.49,1.94-1.13,2.6-.45.46-1.22.84-2.31,1.12-1.09.29-2.29.52-3.6.72-1.3.19-2.6.36-3.89.49-1.29.13-2.34.27-3.15.39l-13.45,2.13Z"/>
            <path class="cls-2" d="M71.47,60.02c1.04-.02,2.11-.11,3.22-.26,1.11-.15,2.25-.31,3.43-.5,1.91-.3,3.83-.63,5.76-.97,1.93-.35,3.84-.67,5.72-.97,1.09-.17,2.14-.29,3.15-.35,1.01-.06,1.96,0,2.86.16.22.47.36,1.03.42,1.68.06.65.08,1.34.08,2.07,0,.56,0,1.14-.02,1.75-.01.61-.02,1.23-.02,1.87,0,.59.03,1.21.08,1.86.06.65.08,1.3.08,1.94,0,.81-.08,1.48-.23,2.01-.15.53-.42.98-.8,1.35-.38.37-.9.66-1.56.88-.66.22-1.48.4-2.46.56s-1.92.28-2.9.37c-.98.1-1.86.21-2.65.33-2.3.36-4.39.7-6.29,1.01-1.89.31-3.67.6-5.32.86-1.65.26-3.22.52-4.71.77-1.49.25-2.96.49-4.41.72-1.88.3-3.64.54-5.28.73-1.64.19-3.17.28-4.6.29-.42-.49-.69-1.08-.82-1.76-.13-.68-.19-1.4-.19-2.16,0-3.62,0-7.2.02-10.75.01-3.55.02-7.11.02-10.68s0-7.18.02-10.83c.01-3.65.02-7.39.02-11.23,0-.9-.04-1.97-.1-3.22-.07-1.25-.11-2.55-.11-3.89,0-.95.03-1.88.11-2.79.07-.91.2-1.73.38-2.48.18-.74.43-1.36.76-1.86.32-.5.75-.82,1.28-.96.76-.2,1.57-.37,2.44-.51s1.69-.25,2.54-.34c.86-.09,1.66-.2,2.42-.32.42-.07.86-.14,1.32-.23.46-.09.93-.17,1.41-.24,1.2-.19,2.14-.25,2.82-.17.67.08,1.18.32,1.51.73s.54,1,.61,1.78c.07.77.11,1.75.11,2.93,0,3.17,0,6.53-.02,10.07-.01,3.55-.03,7.1-.04,10.67-.01,3.56-.03,7.06-.04,10.5-.01,3.44-.02,6.64-.02,9.61Z"/>
            <path class="cls-2" d="M128.02,26.2c.45-.32.78-.75.99-1.29.21-.54.43-1.03.65-1.49.73-1.63,1.46-3.32,2.19-5.08.73-1.75,1.48-3.52,2.25-5.3.77-1.78,1.56-3.54,2.35-5.29.8-1.75,1.63-3.44,2.5-5.06,1.35-.44,2.82-.77,4.41-.99,1.6-.22,3.21-.47,4.84-.72.78-.12,1.58-.27,2.4-.44.81-.17,1.6-.3,2.37-.4.77-.09,1.5-.14,2.19-.14.69,0,1.31.1,1.87.29-.34,1.23-.86,2.42-1.56,3.57-.7,1.15-1.35,2.3-1.93,3.46-1.51,2.9-2.97,5.78-4.37,8.64-1.4,2.86-2.89,5.78-4.46,8.78-.28.52-.59,1.07-.92,1.64-.34.57-.8.99-1.39,1.25-.06,1.24-.37,2.36-.95,3.37-.58,1-1.1,1.95-1.58,2.84-.56.99-1.08,1.94-1.56,2.87-.48.93-.97,1.91-1.47,2.94.06,1.59.08,3.24.06,4.95-.01,1.71-.04,3.43-.08,5.14-.04,1.72-.09,3.41-.15,5.09-.06,1.68-.08,3.29-.08,4.83,0,.5.03,1,.11,1.5.07.49.1.98.1,1.45s-.06.94-.17,1.39c-.11.45-.35.89-.71,1.31-1.07.39-2.24.73-3.53,1-1.29.27-2.62.52-3.99.74s-2.73.4-4.08.54c-1.35.14-2.58.27-3.7.4-.39-.81-.67-1.7-.82-2.67-.15-.97-.24-1.98-.25-3.03-.01-1.05,0-2.12.06-3.23.06-1.1.08-2.19.08-3.25s.04-2.21.11-3.36c.07-1.15.13-2.28.17-3.41s.05-2.22.02-3.26c-.03-1.05-.13-2.03-.29-2.96-.08-.35-.22-.7-.4-1.05-.18-.35-.4-.69-.65-1.03-.25-.34-.51-.69-.78-1.05-.27-.36-.51-.72-.74-1.08-2.66-4.29-5.28-8.48-7.86-12.57-2.58-4.09-5.14-8.28-7.7-12.55-.2-.33-.43-.68-.69-1.03-.27-.35-.5-.7-.72-1.06-.21-.36-.36-.74-.46-1.15-.1-.4-.09-.85.02-1.35,1.32-.26,2.75-.55,4.29-.87,1.54-.31,3.1-.6,4.67-.86,1.57-.26,3.1-.47,4.58-.64,1.49-.16,2.84-.23,4.08-.2.73.53,1.31,1.22,1.74,2.08.43.86.86,1.7,1.28,2.53,1.26,2.46,2.54,4.99,3.85,7.57,1.3,2.58,2.57,5.15,3.81,7.7Z"/>
          </g>
          <g>
            <g>
              <path class="cls-3" d="M48.5,103.81c-.12-.66-.18-1.27-.18-1.82-.03-.54.01-1.11.12-1.7.11-.59.14-1.16.08-1.7-.06-.7-.11-1.34-.16-1.9-.06-.57-.3-1.02-.74-1.36-1.21,0-2.49.07-3.84.22-1.36.15-2.75.33-4.19.54-1.44.21-2.91.45-4.42.72-1.51.27-3.01.52-4.52.76-3.07.48-6.12.95-9.16,1.41-3.04.45-5.89.92-8.54,1.39-.52.08-1.07.16-1.64.24-.1.01-.2.04-.3.06h.03c-.11-.24-4.74,1.21-5.08,1.12s-.73-.15-1.15-.15-.84.04-1.25.12c-.41.08-.74.17-.99.26-.79.32-1.37.78-1.72,1.38-.36.6-.59,1.29-.7,2.06-.11.77-.15,1.62-.12,2.55.03.93.04,1.86.04,2.79,0,1.04-.01,2.08-.04,3.13-.03,1.05.14,1.87.49,2.47.85.39,1.92.52,3.2.4,1.29-.12,2.64-.31,4.07-.58,1.42-.27,2.85-.53,4.27-.8,1.42-.27,2.71-.37,3.86-.3-.06,6.12-.05,12,.02,17.66.07,5.66.06,11.16-.02,16.52,0,.96-.02,1.93-.06,2.91-.04.98-.06,1.95-.04,2.9.01.96.08,1.89.19,2.8.11.91.31,1.79.62,2.61.93.15,2.05.19,3.37.1,1.32-.09,2.67-.24,4.07-.46,1.4-.22,2.77-.49,4.13-.82,1.36-.32,2.55-.65,3.59-.98.36-.85.6-1.72.74-2.62.14-.9.22-1.81.25-2.73.03-.92.02-1.86-.02-2.81-.04-.95-.06-1.91-.06-2.87,0-2.93,0-5.89-.02-8.87-.01-2.98-.02-5.96-.02-8.93s.01-5.91.04-8.82c.03-2.91.1-5.75.21-8.54.68-.27,1.45-.48,2.3-.61.85-.13,1.75-.24,2.69-.3.95-.07,1.9-.13,2.86-.18.96-.06,1.87-.14,2.73-.25.86-.11,1.66-.27,2.38-.5.73-.22,1.32-.54,1.79-.94.52-.44.85-.97.99-1.59.14-.62.18-1.27.14-1.95-.04-.68-.12-1.35-.25-2.02Z"/>
              <path class="cls-3" d="M138.94,95.31c-.33.27-.64.53-.94.79-.3.25-.73.42-1.27.51l-.23.04c-.1.02-.18.02-.27,0-.41.56-.88,1-1.42,1.33s-1.03.72-1.5,1.18c-2.08,1.95-3.61,4.12-4.58,6.54-.97,2.41-1.46,4.84-1.46,7.28,0,2.11.32,4.06.97,5.85.64,1.79,1.59,3.3,2.83,4.54,1.25,1.24,2.8,2.13,4.66,2.67,1.86.54,4.01.62,6.45.23.79-.13,1.63-.29,2.51-.5.88-.21,1.77-.45,2.67-.73.03-.28.04-.56.04-.85v-.88c0-.9-.02-1.82-.06-2.74-.04-.92-.06-1.82-.06-2.7,0-.93.05-1.82.14-2.67.09-.85.29-1.61.6-2.29.63-.4,1.36-.7,2.18-.9.82-.2,1.7-.37,2.63-.52l2.67-.42c.6-.1,1.21-.21,1.83-.35.62-.14,1.21-.25,1.79-.34.74-.12,1.43-.16,2.07-.12.64.04,1.17.23,1.58.57.22.84.36,1.74.43,2.68.07.95.1,1.93.1,2.94,0,.85-.01,1.71-.04,2.57-.03.87-.04,1.74-.04,2.62,0,1.1.05,2.23.14,3.41.1,1.18.14,2.34.14,3.49,0,.77-.03,1.48-.1,2.15-.07.67-.21,1.29-.43,1.88-.14.41-.38.79-.72,1.16-.34.37-.73.72-1.15,1.04-.43.33-.86.63-1.29.9-.44.27-.82.52-1.15.74-2.14,1.38-4.48,2.59-7.05,3.64-2.56,1.05-5.46,1.83-8.69,2.34-3.51.55-6.79.59-9.86.1-3.07-.49-5.86-1.38-8.38-2.68-2.52-1.3-4.74-2.95-6.66-4.95-1.92-2-3.48-4.23-4.68-6.7-.85-1.7-1.49-3.62-1.91-5.76-.42-2.14-.64-4.37-.64-6.7,0-1.94.16-3.89.47-5.83.31-1.94.79-3.82,1.42-5.65.99-2.81,2.42-5.6,4.29-8.36,1.88-2.76,4.1-5.3,6.68-7.61,2.57-2.31,5.43-4.29,8.56-5.93,3.14-1.65,6.43-2.74,9.88-3.29,2.27-.36,4.44-.46,6.51-.31,2.07.15,3.91.43,5.53.83.52.14,1.18.32,1.99.55.81.23,1.59.52,2.34.86.75.35,1.4.74,1.93,1.19.53.45.8.98.8,1.58,0,.27-.05.52-.14.74-.1.22-.23.44-.39.66-.16.22-.34.44-.53.68-.19.24-.38.51-.58.81-.79,1.25-1.56,2.6-2.3,4.06-.74,1.46-1.7,3.02-2.88,4.69-.55.74-1.15,1.17-1.81,1.27-.49.08-1,.03-1.52-.15s-1.06-.39-1.62-.65-1.15-.5-1.77-.75c-.62-.25-1.25-.38-1.91-.42-.38-.02-.75-.02-1.11.01-.36.03-.7.07-1.03.12-.41.06-.81.14-1.21.23-.4.09-.79.17-1.17.23s-.76.1-1.13.12c-.37.02-.76,0-1.17-.08Z"/>
              <path class="cls-3" d="M187.29,93.83l19.47-3.08v-10.64c0-.9-.02-1.8-.06-2.7-.04-.9-.05-1.77-.02-2.61.03-.84.09-1.66.18-2.45.1-.8.29-1.56.6-2.29,1.04-.52,2.29-.89,3.74-1.1,1.45-.22,2.92-.44,4.4-.67.68-.11,1.39-.23,2.12-.37s1.42-.25,2.07-.33,1.27-.09,1.85-.05c.57.05,1.05.2,1.44.47.41,2.32.6,4.73.55,7.25-.04,2.51-.06,5.06-.06,7.63v38.53c0,.55.01,1.11.04,1.7.03.58.03,1.17,0,1.75-.03.58-.11,1.15-.25,1.7-.14.56-.37,1.08-.7,1.57-1.04.33-2.25.66-3.63.98-1.38.33-2.79.61-4.23.83-1.44.23-2.83.39-4.17.47-1.34.09-2.48.06-3.41-.1-.25-1.74-.4-3.6-.45-5.58-.06-1.98-.07-3.99-.04-6.05.03-2.06.06-4.13.1-6.22.04-2.09.02-4.11-.06-6.07-1.48.1-3.01.26-4.58.48-1.57.22-3.17.47-4.79.74-1.62.27-3.24.55-4.87.83-1.63.29-3.23.52-4.79.71-.22,2.17-.31,4.32-.29,6.43.03,2.12.04,4.23.04,6.34s0,4.02.02,5.97c.01,1.96-.21,3.83-.68,5.63-.47.32-1.01.58-1.62.77-.62.19-1.27.36-1.97.5-.7.14-1.42.26-2.16.36-.74.1-1.47.21-2.18.32s-1.47.24-2.2.37c-.73.13-1.42.23-2.09.31-.67.08-1.3.11-1.89.09-.59-.02-1.1-.1-1.54-.25-.33-.33-.48-.8-.45-1.41.03-.61.03-1.24,0-1.89-.03-.6-.06-1.28-.1-2.06-.04-.77-.08-1.58-.1-2.43-.03-.84-.05-1.71-.06-2.6-.01-.89,0-1.76.06-2.62.03-.55.11-1.11.25-1.66s.21-1.08.21-1.57c0-.46-.07-.98-.21-1.55-.14-.57-.22-1.16-.25-1.79-.08-1.03-.12-2.14-.1-3.33.01-1.19.04-2.42.08-3.69.04-1.27.09-2.52.14-3.76.05-1.24.08-2.42.08-3.55,0-1.31,0-2.58.02-3.8.01-1.22.02-2.44.02-3.66v-3.72c0-1.26-.01-2.59-.04-3.98,0-.66-.03-1.39-.08-2.21-.06-.81-.1-1.63-.14-2.44-.04-.81-.05-1.63-.02-2.44.03-.81.12-1.55.27-2.2.15-.65.39-1.21.72-1.67.33-.46.77-.78,1.31-.95.44-.12,1.05-.27,1.85-.44s1.67-.34,2.63-.52c.96-.18,1.95-.34,2.98-.47,1.03-.13,1.99-.23,2.9-.29s1.68-.07,2.34-.02c.66.05,1.11.19,1.36.42.36.35.59.93.7,1.74.11.8.16,1.7.16,2.69s-.03,1.98-.1,2.99-.1,1.9-.1,2.67v2.94c0,.89,0,1.73-.02,2.51s-.03,1.55-.06,2.29c-.03.74-.07,1.5-.12,2.28Z"/>
              <path class="cls-3" d="M111.72,146.36c-.44.34-.95.62-1.54.82-.59.2-1.21.36-1.87.48-.66.12-1.34.22-2.03.3-.7.08-1.38.18-2.03.28-1.4.22-2.76.44-4.09.67s-2.54.33-3.63.31c-.47-.58-.88-1.22-1.25-1.92-.37-.69-.71-1.43-1.03-2.2-.31-.77-.62-1.56-.9-2.36s-.58-1.61-.88-2.41c-1.73.3-3.49.59-5.3.86-1.81.27-3.61.55-5.4.83-1.79.28-3.55.55-5.28.81-1.72.26-3.36.52-4.89.79-.22.17-.38.36-.49.57-.11.21-.2.43-.27.66-.07.23-.12.47-.16.72-.04.25-.1.5-.18.73-.22.58-.45,1.2-.68,1.85-.23.65-.49,1.32-.78,1.99-.29.68-.59,1.33-.9,1.97-.32.64-.66,1.22-1.05,1.75-1.12.23-2.37.49-3.74.78-1.37.28-2.75.55-4.13.8-1.38.25-2.72.41-4,.51-1.29.09-2.4.05-3.33-.13-.03-.68.05-1.36.23-2.05.18-.69.4-1.36.66-2.03.26-.67.53-1.34.82-2,.29-.66.55-1.33.8-2,2.46-6.63,4.92-13.33,7.37-20.1,2.45-6.77,4.91-13.54,7.37-20.31.49-1.34.95-2.68,1.38-4.04.42-1.35.87-2.69,1.34-4.01.47-1.32.99-2.63,1.56-3.92.58-1.3,1.26-2.55,2.05-3.78.52-.03,1.35-.18,2.49-.45,1.14-.28,2.35-.55,3.63-.82,1.29-.27,2.53-.48,3.74-.63,1.2-.15,2.15-.1,2.83.15.38.13.72.38,1.01.74.29.37.55.8.8,1.29.25.49.48,1.03.7,1.61.22.58.44,1.16.66,1.72,2.05,5.04,4.13,10.12,6.24,15.24,2.11,5.12,4.19,10.1,6.24,14.95.87,2.08,1.77,4.11,2.67,6.09s1.6,4.01,2.09,6.1c.33.61.68,1.24,1.07,1.91.38.67.74,1.36,1.07,2.09.33.73.59,1.5.78,2.3.19.81.27,1.63.25,2.49ZM76.15,128.86l11.3-1.79c-.88-2.6-1.77-5.18-2.69-7.73-.92-2.55-1.83-5.13-2.73-7.72-.06-.16-.2-.2-.45-.13-.85,2.96-1.71,5.89-2.59,8.79-.88,2.91-1.82,5.77-2.83,8.58Z"/>
            </g>
            <g>
              <path class="cls-3" d="M163.45,144.97c.33.58.54,1.3.62,2.16.08.86.12,1.78.1,2.76-.02.97-.05,1.97-.1,2.97-.06,1.01-.04,1.96.04,2.85-.44.62-.86,1.25-1.25,1.9-.4.65-.82,1.29-1.26,1.9-.44.62-.91,1.2-1.42,1.74s-1.09,1.03-1.75,1.47c-.3.79-.67,1.54-1.11,2.27-.44.73-.91,1.43-1.42,2.11-.51.68-1.03,1.35-1.58,2.02-.55.66-1.07,1.32-1.56,1.97-2.99,3.98-5.95,8.01-8.89,12.11-2.94,4.09-5.95,8.18-9.02,12.25l21.77-3.44c.6-.09,1.22-.21,1.87-.34.64-.13,1.27-.24,1.87-.34s1.15-.14,1.64-.14.89.08,1.19.22c.41.24.7.59.86,1.05.17.47.27,1,.31,1.6.04.6.04,1.24,0,1.93-.04.69-.05,1.38-.02,2.06,0,.58,0,1.24.02,1.99.01.75-.01,1.48-.08,2.19-.07.71-.18,1.36-.35,1.95-.17.59-.41,1.02-.74,1.29-.46.4-1.23.73-2.28,1-1.05.26-2.21.48-3.47.65-1.26.17-2.51.32-3.76.45-1.25.13-2.31.26-3.18.4-2.36.37-4.56.74-6.61,1.09-2.05.35-4.1.7-6.14,1.03-2.04.34-4.12.66-6.22.98-2.11.32-4.39.65-6.86.98-.44.07-.99.17-1.66.3-.67.13-1.41.28-2.2.43-.79.15-1.6.3-2.42.44-.82.14-1.6.25-2.34.33-.74.08-1.39.09-1.95.04-.56-.05-.97-.18-1.21-.38-.47-.39-.73-1.04-.78-1.95s-.05-1.9.02-2.98c.07-1.08.14-2.15.23-3.22.08-1.07.04-1.94-.12-2.63,2.33-3.38,4.71-6.71,7.15-10,2.44-3.29,4.89-6.57,7.35-9.83,2.47-3.27,4.93-6.53,7.4-9.8,2.46-3.26,4.9-6.57,7.31-9.91l-14.5,2.29c-2.41.38-4.82.79-7.23,1.22-2.41.44-4.68.63-6.82.58-.33-.28-.55-.68-.68-1.21-.12-.53-.21-1.12-.25-1.77-.04-.65-.05-1.33-.02-2.05.03-.72.04-1.42.04-2.1s-.01-1.38-.04-2.09-.01-1.38.04-2.02c.06-.64.17-1.22.33-1.76.16-.53.44-.98.82-1.34,2.93-.63,6.01-1.21,9.24-1.75,3.23-.54,6.51-1.04,9.84-1.51,3.33-.47,6.63-.94,9.92-1.4,3.28-.46,6.45-.94,9.49-1.42,1.01-.16,2.03-.35,3.04-.58,1.01-.23,2.02-.44,3-.64.99-.2,1.97-.34,2.94-.44.97-.1,1.92-.08,2.86.04Z"/>
              <path class="cls-3" d="M287.02,125.85c.25.43.43.88.53,1.37.11.49.17,1.01.18,1.55.01.55,0,1.1-.02,1.67-.03.57-.04,1.11-.04,1.63.06,3.55.07,7.21.04,10.96-.03,3.76-.04,7.51-.04,11.26,0,2.6-.04,5.07-.12,7.41-.08,2.34-.29,4.55-.64,6.63-.34,2.08-.84,4.05-1.5,5.91-.66,1.86-1.56,3.62-2.71,5.28-1.42,2.09-3.25,3.93-5.46,5.53-2.22,1.6-4.63,2.92-7.23,3.98-2.6,1.05-5.31,1.83-8.11,2.31-2.81.49-5.53.65-8.15.49-2.63-.16-5.07-.64-7.33-1.45-2.26-.81-4.14-1.98-5.65-3.52-.33-.36-.67-.76-1.03-1.19-.36-.44-.71-.9-1.05-1.4-.34-.49-.67-1-.97-1.53-.3-.53-.56-1.06-.78-1.6-.63-1.43-1.08-3.05-1.34-4.84-.26-1.79-.43-3.7-.51-5.71-.08-2.01-.1-4.1-.06-6.26.04-2.16.06-4.32.06-6.48v-19.02c0-.44-.01-.9-.04-1.39-.03-.49-.01-.96.04-1.42.05-.46.16-.91.33-1.35s.44-.85.82-1.24c.36.03.92-.04,1.71-.21s1.67-.37,2.67-.61c1-.24,2.05-.49,3.14-.74,1.1-.26,2.14-.45,3.12-.6s1.86-.21,2.63-.19c.77.02,1.33.16,1.68.43.36.3.6.86.72,1.69s.18,1.75.18,2.76-.03,2.03-.1,3.06c-.07,1.02-.1,1.88-.1,2.56v10.64c0,1.67-.03,3.37-.08,5.11-.06,1.73-.09,3.42-.1,5.07-.01,1.65.03,3.21.12,4.71.09,1.49.3,2.85.62,4.07.31,1.22.77,2.27,1.38,3.15s1.4,1.51,2.38,1.9c1.4.57,2.83.76,4.31.57,1.48-.19,2.87-.64,4.17-1.34,1.3-.7,2.45-1.58,3.45-2.64,1-1.06,1.7-2.17,2.11-3.33.25-.67.43-1.5.55-2.49.12-.99.21-2.08.25-3.26.04-1.18.06-2.43.06-3.73s-.02-2.61-.06-3.91c-.04-1.31-.08-2.59-.1-3.85-.03-1.25-.04-2.42-.04-3.48v-15.86c0-.36,0-.76-.02-1.21-.01-.45,0-.88.04-1.3s.11-.81.21-1.18c.1-.37.25-.68.47-.94.27-.32.7-.58,1.29-.78.59-.2,1.25-.37,1.97-.52.73-.14,1.48-.25,2.26-.34.78-.08,1.5-.18,2.16-.28.77-.12,1.5-.25,2.2-.39.7-.14,1.36-.25,1.97-.33.62-.08,1.22-.12,1.81-.1.59.02,1.17.12,1.75.3Z"/>
              <path class="cls-3" d="M339.83,125.93c-.12-.66-.19-1.27-.19-1.82-.03-.54.01-1.11.12-1.7.11-.59.14-1.16.08-1.7-.06-.7-.11-1.34-.16-1.9-.06-.57-.3-1.02-.74-1.36-1.2,0-2.48.07-3.84.22-1.36.15-2.75.33-4.19.54-1.44.21-2.91.45-4.42.72-1.51.27-3.01.52-4.52.76-3.07.48-6.12.95-9.16,1.41-3.04.45-5.89.92-8.55,1.39-.52.08-1.07.16-1.64.24-.33.04-.65.12-.97.19-.43-.09-4.07,1.08-4.39.99-.34-.1-.73-.15-1.15-.15s-.84.04-1.25.12c-.41.08-.74.17-.98.26-.8.32-1.37.78-1.73,1.38s-.59,1.29-.7,2.06c-.11.77-.15,1.62-.12,2.55.03.93.04,1.86.04,2.79,0,1.04-.01,2.08-.04,3.13-.03,1.05.14,1.87.49,2.47.85.39,1.92.52,3.2.4,1.29-.12,2.64-.31,4.07-.58,1.42-.27,2.85-.53,4.27-.8,1.42-.27,2.71-.37,3.86-.3-.06,6.12-.05,12,.02,17.66.07,5.66.06,11.16-.02,16.52,0,.96-.02,1.93-.06,2.91-.04.98-.06,1.95-.04,2.9.01.96.07,1.89.19,2.8.11.91.31,1.79.61,2.61.93.15,2.05.19,3.37.1,1.31-.09,2.67-.24,4.07-.46,1.4-.22,2.77-.49,4.13-.82,1.35-.32,2.55-.65,3.59-.98.36-.85.6-1.72.74-2.62.14-.9.22-1.81.25-2.73.03-.92.02-1.86-.02-2.81-.04-.95-.06-1.91-.06-2.87,0-2.93,0-5.89-.02-8.87-.01-2.98-.02-5.96-.02-8.93s.01-5.91.04-8.82c.03-2.91.1-5.75.2-8.54.68-.27,1.45-.48,2.3-.61.85-.13,1.75-.24,2.69-.3.94-.07,1.9-.13,2.85-.18.96-.06,1.87-.14,2.73-.25.86-.11,1.66-.27,2.38-.5.73-.22,1.32-.54,1.79-.94.52-.44.85-.97.99-1.59.14-.62.18-1.27.14-1.95-.04-.68-.12-1.35-.25-2.02Z"/>
            </g>
            <g>
              <path class="cls-3" d="M212.99,184.69l-1.73-.77c-1.68-.74-3.12-1.51-4.37-2.26-.92.79-1.9,1.51-2.99,2.12-1.45.82-2.97,1.39-4.56,1.73-.57.15-1.13.23-1.66.26-.53.03-1.07.05-1.6.07-.53.02-1.09.04-1.67.08-.57.04-1.19.11-1.85.21-.61-.27-1.19-.57-1.75-.89-.93.83-2.49,2.16-4.77,4.06l-.42.35c-1.47,1.22-3.22,2.67-5.26,4.35l-.75.61c-.84.69-1.73,1.42-2.67,2.19,1.66,1.23,3.51,2.26,5.56,3.08,2.05.83,4.2,1.41,6.45,1.75,2.24.34,4.54.44,6.88.29,2.34-.15,4.65-.58,6.92-1.3,1.67-.54,3.35-1.23,5.03-2.07,1.68-.84,3.29-1.77,4.8-2.77,1.52-1.01,2.93-2.07,4.23-3.2,1.3-1.12,2.43-2.24,3.39-3.35.28-.34.55-.69.83-1.04-2.54-1.07-5.21-2.23-8.06-3.5Z"/>
              <path class="cls-3" d="M218.93,172.68c.6.31,1.26.64,1.97,1.01l3.07,1.59c1.09.57,2.28,1.19,3.57,1.86.85-2.17,1.52-4.43,1.96-6.82.27-1.55.41-3.13.41-4.75s-.1-3.19-.31-4.72c-.21-1.53-.5-2.95-.88-4.26-.38-1.31-.81-2.43-1.27-3.37-.06-.16-.2-.26-.43-.3-.23-.05-.39-.13-.47-.25-.14-.25-.18-.53-.12-.82.06-.3.03-.54-.08-.75-.3-.61-.62-1.15-.97-1.63-.34-.48-.7-.92-1.07-1.31-.37-.39-.75-.77-1.13-1.14-.38-.36-.77-.73-1.15-1.11-.06-.05-.06-.16,0-.33.06-.17.06-.3,0-.37-.06-.05-.16-.06-.33-.05-.16.01-.27,0-.33-.05-.6-.62-1.21-1.17-1.81-1.64-.6-.48-1.23-.92-1.89-1.32s-1.34-.78-2.03-1.12c-.7-.34-1.45-.68-2.24-1.02-.57-.26-1.21-.49-1.89-.67-.68-.18-1.34-.36-1.97-.53-1.76-.47-3.57-.72-5.44-.76.29,3.62.54,7.59.74,11.94l.09,1.88c.05.95.06,1.84.05,2.68,1.25.4,2.38.96,3.38,1.67,1.05.75,1.91,1.61,2.57,2.57.63.91,1.14,1.94,1.52,3.09.38,1.15.64,2.34.78,3.57.14,1.24.16,2.49.08,3.75-.02.29-.06.57-.1.86.19.06.39.12.58.18.45.14,1.71.74,3.93,1.85l1.18.6Z"/>
              <path class="cls-3" d="M175.97,180.55c.94-.89,1.89-1.78,2.89-2.71l1.39-1.29c1.08-1.01,2.12-1.88,3.1-2.63-.03-1.45.02-2.86.15-4.22.22-2.27.82-4.34,1.81-6.22.47-.9,1.05-1.8,1.77-2.7.71-.91,1.51-1.76,2.38-2.55.7-.63,1.45-1.19,2.24-1.72-.04-.26-.08-.52-.12-.76-.13-.68-.16-4.14-.09-11.3v-.32c.02-1.21.03-2.53.05-3.96-.67.26-1.33.54-1.96.85-1.75.87-3.48,1.83-5.17,2.89-1.59,1.02-3.08,2.11-4.48,3.28-1.4,1.17-2.62,2.39-3.66,3.68-.41.5-.8,1.05-1.15,1.64-.36.59-.74,1.15-1.15,1.68-.08.09-.19.17-.33.24-.14.06-.25.16-.33.28-.11.15-.18.32-.23.51-.04.18-.12.35-.23.51-.22.34-.46.61-.72.81-.26.21-.47.46-.64.76-.17.27-.3.64-.39,1.11-.1.47-.27.97-.51,1.5-.19.39-.43.76-.7,1.12-.27.36-.49.74-.66,1.15-.63,1.5-1.17,3.18-1.62,5.06-.45,1.88-.75,3.72-.88,5.52-.14,1.66-.14,3.25,0,4.77.19,2.27.62,4.39,1.27,6.37.37,1.12.79,2.17,1.25,3.17,1.97-1.98,4.13-4.08,6.48-6.3l.22-.21Z"/>
            </g>
            <path class="cls-3" d="M291.19,117.66c-.44.34-.95.62-1.54.82-.59.2-1.21.36-1.87.48-.66.12-1.34.22-2.03.3-.7.08-1.38.18-2.03.28-1.4.22-2.76.44-4.09.67s-2.54.33-3.63.31c-.47-.58-.88-1.22-1.25-1.92-.37-.69-.71-1.43-1.03-2.2-.31-.77-.62-1.56-.9-2.36-.29-.8-.58-1.61-.88-2.41-1.73.3-3.49.59-5.3.86-1.81.27-3.61.55-5.4.83-1.79.28-3.55.55-5.28.81-1.72.26-3.36.52-4.89.79-.22.17-.38.36-.49.57-.11.21-.2.43-.27.66-.07.23-.12.47-.16.72-.04.25-.1.5-.18.73-.22.58-.45,1.2-.68,1.85-.23.65-.49,1.32-.78,1.99-.29.68-.59,1.33-.9,1.97-.32.64-.66,1.22-1.05,1.75-1.12.23-2.37.49-3.74.78s-2.75.55-4.13.8c-1.38.25-2.72.41-4,.51-1.29.09-2.4.05-3.33-.13-.03-.68.05-1.36.23-2.05.18-.69.4-1.36.66-2.03.26-.67.53-1.34.82-2,.29-.66.55-1.33.8-2,2.46-6.63,4.92-13.33,7.37-20.1,2.45-6.77,4.91-13.54,7.37-20.31.49-1.34.95-2.68,1.38-4.04.42-1.35.87-2.69,1.34-4.01.47-1.32.99-2.63,1.56-3.92.58-1.3,1.26-2.55,2.05-3.78.52-.03,1.35-.18,2.49-.45,1.14-.28,2.35-.55,3.63-.82,1.29-.27,2.53-.48,3.74-.63,1.2-.15,2.15-.1,2.83.15.38.13.72.38,1.01.74.29.37.55.8.8,1.29.25.49.48,1.03.7,1.61.22.58.44,1.16.66,1.72,2.05,5.04,4.13,10.12,6.24,15.24,2.11,5.12,4.19,10.1,6.24,14.95.87,2.08,1.77,4.11,2.67,6.09.9,1.98,1.6,4.01,2.09,6.1.33.61.68,1.24,1.07,1.91.38.67.74,1.36,1.07,2.09.33.73.59,1.5.78,2.3.19.81.27,1.63.25,2.49ZM255.61,100.16l11.3-1.79c-.88-2.6-1.77-5.18-2.69-7.73-.92-2.55-1.83-5.13-2.73-7.72-.06-.16-.2-.2-.45-.13-.85,2.96-1.71,5.89-2.59,8.79-.88,2.91-1.82,5.77-2.83,8.58Z"/>
          </g>
          <path class="cls-1" d="M197.84,165.17c-2.54,0-4.59,2.06-4.59,4.59s2.06,4.59,4.59,4.59,4.59-2.06,4.59-4.59-2.06-4.59-4.59-4.59Z"/>
        </g>
      </g>
      <path class="cls-1" d="M194.46,162.11c.19.7.38,1.35.59,1.88.84-.41,1.79-.64,2.79-.64.09,0,.18,0,.27.01,1.64-1.63,3.35-4.52,3.29-9.49.18.63.28,1.38.31,2.21v1.15c-.08,2.1-.58,4.5-1.5,6.57.34.13.66.3.97.49.33-.19.53-.33.53-.33,0,0,.62-1.28,1.11-3.73l.13-.73c.33-1.93.55-4.45.39-7.56-.12-2.37-.3-7.16-.72-12.7,0,0-.07-.56-.04-.55-.05-.7-.11-1.42-.18-2.14l-.14-1.51c-1.13-11.98-3.46-25.37-8.6-25.37,0,1-.35,17.29-.52,30.19.04.04-.14,14.86,0,15.65,0,.03.13.92.14.95l.1.51c.26,1.54,1.06,5.14,1.06,5.14Z"/>
      <path class="cls-1" d="M195.14,177.8c.41-.6.77-1.17,1.04-1.68-.86-.37-1.65-.94-2.31-1.7-.06-.07-.11-.14-.17-.22-2.3-.18-5.61.41-9.34,3.68.36-.54.87-1.11,1.47-1.67l.87-.75c1.65-1.31,3.79-2.49,5.96-3.15-.12-.34-.2-.69-.26-1.05-.36-.12-.6-.18-.6-.18,0,0-1.37.36-3.55,1.59l-.64.38c-1.67,1.01-3.73,2.48-5.99,4.63-1.72,1.64-5.24,4.9-9.17,8.82,0,0-.37.42-.39.39-.5.5-1,1.01-1.51,1.53l-1.06,1.09c-8.35,8.66-16.99,19.15-13.64,23.05.76-.65,13.34-11,23.24-19.27,0-.06,11.36-9.57,11.86-10.2.02-.02.61-.7.63-.73l.32-.41c1-1.2,3.21-4.16,3.21-4.16Z"/>
      <path class="cls-1" d="M206.38,169.75c-.71-.15-1.38-.28-1.95-.33-.02.94-.24,1.88-.7,2.78-.04.08-.09.16-.14.24.7,2.2,2.5,5.04,6.94,7.26-.64-.13-1.36-.38-2.1-.73l-1.03-.53c-1.83-1.03-3.74-2.57-5.17-4.33-.27.24-.57.45-.87.64.02.38.06.62.06.62,0,0,.85,1.13,2.81,2.69l.59.45c1.56,1.17,3.71,2.52,6.55,3.8,2.16.97,6.51,3,11.63,5.15,0,0,.53.19.51.22.65.27,1.31.55,1.98.82l1.41.57c11.17,4.46,24.15,8.5,26.5,3.92-.89-.46-15.23-8.2-26.62-14.24-.05.02-13.16-6.91-13.93-7.13-.03,0-.88-.3-.91-.31l-.5-.14c-1.49-.47-5.06-1.4-5.06-1.4Z"/>
    </g>
  </g>
</svg>